<svg xmlns="http://www.w3.org/2000/svg" xmlns:svg="http://www.w3.org/2000/svg" id="svg2268" width="60" height="60" version="1.0" viewBox="0 0 60 60" xml:space="preserve"><rect width="60" height="60" x="0" y="0" fill="#fff" opacity="0"/><circle id="circle2280" cx="30" cy="30" r="25.6" fill="#00C"/><path id="path2320" fill="#fff" fill-rule="evenodd" d="M 32,16 C 27.4,16 20,16 20,16 L 20,44 C 20,44 22.2,44 24,44 L 24,32 L 32,32 C 37,32 40,29 40,24 C 40,19 37,16 32,16 z M 32,28 L 24,28 L 24,20 L 32,20 C 34,20 36,22 36,24 C 36,26 34,28 32,28 z"/></svg>